<svg viewBox="0 0 427 427" fill="none" xmlns="http://www.w3.org/2000/svg">
<circle cx="213.5" cy="213.5" r="213.5" fill="#4CC764"/>
<path d="M355.607 200.914C355.607 137.188 291.719 85.3395 213.188 85.3395C134.664 85.3395 70.7695 137.188 70.7695 200.914C70.7695 258.048 121.436 305.893 189.878 314.94C194.515 315.942 200.828 317.998 202.424 321.962C203.859 325.561 203.363 331.204 202.886 334.84C202.886 334.84 201.214 344.889 200.852 347.032C200.231 350.63 197.99 361.113 213.188 354.71C228.39 348.305 295.206 306.414 325.084 272.025H325.079C345.718 249.389 355.607 226.42 355.607 200.914Z" fill="white"/>
<path d="M308.228 237.712C309.729 237.712 310.947 236.495 310.947 234.993V224.893C310.947 223.399 309.723 222.175 308.228 222.175H281.035V211.685H308.228C309.729 211.685 310.947 210.467 310.947 208.965V198.865C310.947 197.371 309.723 196.147 308.228 196.147H281.035V185.659H308.228C309.729 185.659 310.947 184.44 310.947 182.939V172.839C310.947 171.344 309.723 170.12 308.228 170.12H268.268H268.215C266.713 170.12 265.496 171.337 265.496 172.839V172.897V172.901V234.945V234.951V234.993C265.496 236.495 266.713 237.712 268.215 237.712H268.268H308.228Z" fill="#4CC764"/>
<path d="M253.068 170.12H242.968C241.467 170.12 240.25 171.337 240.25 172.839V209.756L211.812 171.352C211.746 171.253 211.671 171.159 211.594 171.071C211.588 171.064 211.582 171.057 211.575 171.051C211.523 170.992 211.468 170.935 211.412 170.88C211.395 170.865 211.376 170.851 211.36 170.835C211.312 170.792 211.263 170.751 211.212 170.709C211.188 170.692 211.164 170.673 211.139 170.655C211.094 170.621 211.044 170.588 210.995 170.556C210.968 170.537 210.94 170.523 210.912 170.505C210.863 170.477 210.814 170.448 210.763 170.424C210.734 170.408 210.706 170.395 210.675 170.38C210.623 170.357 210.571 170.333 210.516 170.313C210.487 170.301 210.458 170.291 210.428 170.28C210.374 170.26 210.319 170.244 210.263 170.227C210.231 170.217 210.199 170.209 210.167 170.203C210.112 170.189 210.059 170.177 210.004 170.167C209.967 170.16 209.928 170.155 209.89 170.149C209.84 170.143 209.792 170.136 209.743 170.132C209.695 170.128 209.647 170.125 209.596 170.124C209.567 170.124 209.536 170.12 209.504 170.12H199.46C197.958 170.12 196.74 171.337 196.74 172.839V234.993C196.74 236.495 197.958 237.712 199.46 237.712H209.56C211.062 237.712 212.279 236.495 212.279 234.993V198.089L240.752 236.54C240.948 236.817 241.188 237.045 241.454 237.225C241.464 237.233 241.475 237.241 241.484 237.248C241.54 237.284 241.598 237.319 241.655 237.352C241.682 237.367 241.707 237.38 241.735 237.395C241.778 237.417 241.822 237.439 241.867 237.459C241.911 237.479 241.955 237.497 242 237.516C242.03 237.528 242.058 237.537 242.087 237.547C242.148 237.569 242.21 237.591 242.274 237.607C242.287 237.611 242.3 237.615 242.314 237.617C242.54 237.677 242.778 237.712 243.024 237.712H253.068C254.57 237.712 255.787 236.495 255.787 234.993V172.839C255.787 171.337 254.57 170.12 253.068 170.12Z" fill="#4CC764"/>
<path d="M184.309 170.12H174.209C172.708 170.12 171.49 171.337 171.49 172.839V234.993C171.49 236.495 172.708 237.712 174.209 237.712H184.309C185.812 237.712 187.029 236.495 187.029 234.993V172.839C187.029 171.337 185.812 170.12 184.309 170.12Z" fill="#4CC764"/>
<path d="M160.222 237.712C161.725 237.712 162.942 236.495 162.942 234.993V224.893C162.942 223.399 161.718 222.175 160.222 222.175H133.029V172.839C133.029 171.344 131.806 170.12 130.31 170.12H120.21C118.707 170.12 117.491 171.337 117.491 172.839V234.945V234.951V234.993C117.491 236.495 118.707 237.712 120.21 237.712H120.263H160.222Z" fill="#4CC764"/>
</svg>
